<svg width="91" height="70" viewBox="0 0 91 70" fill="none" xmlns="http://www.w3.org/2000/svg">
<path d="M2.26151 9.74705C16.1639 11.8614 28.7674 23.3139 33.3313 28.7759C33.3313 21.1643 35.7888 10.4518 37.0175 6.04698C40.8091 -2.83314 43.1612 1.99455 43.8634 5.5184C43.8634 12.2842 49.4805 23.8425 52.2891 28.7759C53.9742 22.8558 64.9276 16.4424 70.1937 13.9757C71.0363 13.1299 80.0237 10.4518 84.4121 9.21847C93.6804 7.10415 90.0292 11.1566 87.0451 13.4471C79.8833 17.2529 75.9864 36.176 74.9332 45.1618C72.8267 58.2706 61.768 64.7192 56.5019 66.305C51.0252 68.8422 40.5282 69.1241 35.9643 68.9479C29.645 69.7936 21.7459 60.1382 18.5863 55.2048C13.1096 47.1704 11.0383 37.057 10.6872 33.0045C9.42333 25.8158 4.54346 16.971 2.26151 13.4471C0.576367 11.3328 1.55937 10.0994 2.26151 9.74705Z" fill="white" stroke="white"/>
</svg>
