<svg width="107" height="82" viewBox="0 0 107 82" fill="none" xmlns="http://www.w3.org/2000/svg">
<path d="M2.42878 11.2906C18.8305 13.7781 33.6997 27.2516 39.0841 33.6775C39.0841 24.7227 41.9834 12.1198 43.4331 6.93763C47.9062 -3.50958 50.6813 2.17005 51.5097 6.31577C51.5097 14.2755 58.1366 27.8735 61.4501 33.6775C63.4382 26.7127 76.3607 19.1675 82.5735 16.2655C83.5676 15.2705 94.1707 12.1198 99.348 10.6688C110.282 8.18136 105.975 12.9489 102.454 15.6436C94.005 20.121 89.4076 42.3835 88.165 52.9551C85.6799 68.3772 72.6331 75.9638 66.4203 77.8294C59.959 80.8143 47.5749 81.146 42.1905 80.9387C34.7352 81.9336 25.416 70.5744 21.6883 64.7704C15.2271 55.3181 12.7834 43.4199 12.3692 38.6524C10.8781 30.1951 5.12097 19.7894 2.42878 15.6436C0.440693 13.1562 1.60041 11.7052 2.42878 11.2906Z" fill="white" stroke="white"/>
</svg>
