<svg width="102" height="93" viewBox="0 0 102 93" fill="none" xmlns="http://www.w3.org/2000/svg">
<path d="M100.331 3.99973C102.731 -0.800272 99.3308 0.666395 97.3308 1.99973C79.3308 15.5997 70.4975 30.3331 68.3308 35.9998C65.1308 25.5998 59.6641 12.3331 57.3308 6.99976C47.7308 9.39978 44.3308 31.6664 43.8308 42.4998C29.8308 26.4998 14.9975 17.1664 9.33084 14.4998C-1.46916 10.0998 0.497506 14.6664 2.83084 17.4998C6.43084 23.0998 10.3308 32.8331 11.8308 36.9998C18.2308 59.7998 34.1642 77.8331 41.3308 83.9998C65.3308 102.4 84.9975 86.6664 91.8308 76.4998C97.4308 67.2998 97.4975 47.3331 96.8308 38.4998C95.6308 25.6998 98.6642 10.1664 100.331 3.99973Z" fill="white" stroke="white"/>
</svg>
