<svg width="1121" height="1154" viewBox="0 0 1121 1154" fill="none" xmlns="http://www.w3.org/2000/svg">
<path d="M788.04 649.674C804.707 663.452 834.975 703.142 822.708 751.677C821.374 762.344 812.041 789.411 785.373 812.345C758.706 835.279 773.373 822.79 784.04 813.678C776.706 821.234 757.773 838.346 740.706 846.346C769.817 863.235 827.508 909.147 825.374 957.682C828.708 977.905 819.774 1028.22 757.373 1067.68C742.915 1076.83 733.689 1082.69 728.362 1086.1C729.856 1085.31 731.307 1084.52 732.715 1083.75C739.188 1079.75 747.724 1074.45 755.373 1069.68C749.941 1073.63 742.336 1078.45 732.715 1083.75C722.716 1089.92 717.639 1092.97 728.362 1086.1C686.606 1108.33 611.52 1137.69 514.033 1147.69C459.143 1155.02 317.362 1160.89 189.359 1125.69C147.58 1111.69 57.0887 1073.68 29.3547 1033.68C10.6876 1012.35 -16.9131 956.082 22.0212 901.681C30.9103 890.125 55.8886 863.013 84.6894 847.012C57.1332 831.012 1.75401 785.278 0.687359 730.343C1.57628 700.342 30.2881 629.94 138.024 588.339L142.024 585.673L132.024 579.673C87.5784 551.672 1.75402 475.137 14.0211 393.001C21.1323 363.667 64.4223 302.199 180.692 290.999C233.582 284.999 361.363 280.599 449.365 310.999C508.7 327.444 638.703 370.334 684.038 410.335C717.594 432.336 788.84 488.604 805.374 537.672C815.152 554.783 825.374 601.14 788.04 649.674Z" fill="white"/>
<path d="M430.472 166.977C439.467 147.312 469.971 107.803 520.027 107.091C530.675 105.618 559.236 107.628 588.29 127.451C617.345 147.274 601.485 136.339 589.923 128.394C599.12 133.522 620.549 147.382 632.693 161.797C641.473 129.305 670.889 61.6979 718.322 51.1969C736.993 42.743 787.903 38.3504 842.176 88.4107C854.751 100.009 862.801 107.403 867.475 111.665C866.321 110.428 865.186 109.23 864.073 108.071C858.538 102.853 851.207 95.98 844.626 89.8249C849.843 94.0497 856.464 100.15 864.073 108.071C872.623 116.132 876.886 120.245 867.475 111.665C899.75 146.247 947.544 211.176 982.433 302.752C1003.72 353.874 1046.09 489.306 1045.21 622.058C1042.5 666.037 1029.22 763.28 997.759 800.422C981.984 823.975 934.777 865.198 872.152 841.671C858.689 836.075 826.036 818.965 803.127 795.287C794.804 826.045 764.961 891.375 712.174 906.623C682.966 913.529 607.532 904.017 539.464 810.719L535.853 807.546L532.645 818.758C517.102 868.936 465.388 971.645 382.876 981.054C352.701 981.777 282.123 955.872 241.212 846.463C221.727 796.928 184.405 674.64 190.993 581.768C191.52 520.198 199.302 383.524 226.206 329.382C238.772 291.274 274.683 207.893 317.8 179.223C331.797 165.349 373.929 143.477 430.472 166.977Z" fill="#FDD93B"/>
</svg>
