<svg width="673" height="534" viewBox="0 0 673 534" fill="none" xmlns="http://www.w3.org/2000/svg">
<path d="M573.544 694.279C575.456 714.428 569.22 760.725 528.982 784.726C521.041 790.903 496.951 802.639 464.125 800.169C431.3 797.698 449.271 799.139 462.36 800.169C452.507 800.316 428.652 799.11 412.063 793.109C420.152 823.553 427.946 892.116 394.415 922.824C383.238 938.413 344.029 965.797 276.613 950.62C260.993 947.103 251.009 944.877 245.225 943.61C246.74 944.072 248.22 944.512 249.665 944.931C256.593 946.57 265.751 948.71 273.966 950.62C267.76 949.637 259.539 947.791 249.665 944.931C238.963 942.398 233.583 941.06 245.225 943.61C202.883 930.683 133.761 900.423 62.6285 842.524C21.4494 811.052 -76.2629 721.105 -137.679 613.098C-156.062 576.183 -190.8 491.148 -182.682 446.322C-180.917 419.85 -161.945 364.346 -100.176 354.11C-86.646 352.345 -52.1732 350.933 -22.5241 359.405C-30.1717 330.579 -36.5545 263.663 -0.905097 226.602C19.5374 207.336 85.1299 179.746 183.96 223.513L188.372 224.396L185.725 213.807C174.842 165.863 168.694 58.4145 231.169 12.1762C255.288 -2.5306 324.616 -14.5608 408.975 54.9731C447.948 86.0046 535.424 167.657 573.544 246.015C601.928 296.165 659.579 410.585 663.109 467.059C670.756 503.826 680.669 588.214 659.138 631.628C654.285 649.424 630.371 686.867 573.544 694.279Z" fill="white"/>
</svg>
