<svg width="241" height="245" viewBox="0 0 241 245" fill="none" xmlns="http://www.w3.org/2000/svg">
<path d="M241 63C241 97.7939 212.988 126 178.433 126C143.878 126 115.865 97.7939 115.865 63C115.865 28.2061 143.878 0 178.433 0C212.988 0 241 28.2061 241 63Z" fill="black"/>
<path d="M241 182C241 216.794 212.988 245 178.433 245C143.878 245 115.865 216.794 115.865 182C115.865 147.206 143.878 119 178.433 119C212.988 119 241 147.206 241 182Z" fill="black"/>
<path d="M125.135 182C125.135 216.794 97.1223 245 62.5673 245C28.0123 245 0 216.794 0 182C0 147.206 28.0123 119 62.5673 119C97.1223 119 125.135 147.206 125.135 182Z" fill="black"/>
<path d="M125.135 63C125.135 97.7939 97.1223 126 62.5673 126C28.0123 126 0 97.7939 0 63C0 28.2061 28.0123 0 62.5673 0C97.1223 0 125.135 28.2061 125.135 63Z" fill="black"/>
<path d="M180.75 123.667C180.75 158.461 152.738 186.667 118.183 186.667C83.6277 186.667 55.6154 158.461 55.6154 123.667C55.6154 88.8727 83.6277 60.6667 118.183 60.6667C152.738 60.6667 180.75 88.8727 180.75 123.667Z" fill="black"/>
</svg>
