<?xml version="1.0" encoding="utf-8"?>
<!-- Generator: Adobe Illustrator 25.0.1, SVG Export Plug-In . SVG Version: 6.00 Build 0)  -->
<svg version="1.1" id="레이어_1" xmlns="http://www.w3.org/2000/svg" xmlns:xlink="http://www.w3.org/1999/xlink" x="0px"
	 y="0px" viewBox="0 0 770 115" style="enable-background:new 0 0 770 115;" xml:space="preserve">
<style type="text/css">
	.st0{fill:#070606;}
</style>
<g>
	<g>
		<path class="st0" d="M94.2,44.5c-2.5,2.7-3.8,6.9-3.8,12.5v25.9h-9.8V31.3h9.8v5.1c0,0,6-7.5,20-5.7v9.4
			C99.9,37.2,94.2,44.5,94.2,44.5z"/>
		<path class="st0" d="M47.6,0.6l-0.2,37.3c-4.9-4.7-11.6-7.6-19-7.6C13.2,30.3,1,42.6,1,57.7s12.3,27.4,27.4,27.4
			c7.4,0,14.1-2.9,19-7.7l0.2,5.4h9.8V0.6H47.6z M28.4,75c-9.6,0-17.3-7.7-17.3-17.3c0-9.6,7.7-17.3,17.3-17.3s17.3,7.7,17.3,17.3
			C45.7,67.3,37.9,75,28.4,75z"/>
		<path class="st0" d="M218.3,30.3c-7.4,0-14.2,3-19.1,7.8l-0.2-5.9h-9.8v82.2h9.8l0.2-37c4.9,4.8,11.7,7.7,19.1,7.7
			c15.1,0,27.4-12.3,27.4-27.4S233.4,30.3,218.3,30.3z M218.3,75c-9.6,0-17.3-7.7-17.3-17.3c0-9.6,7.7-17.3,17.3-17.3
			s17.3,7.7,17.3,17.3C235.6,67.3,227.8,75,218.3,75z"/>
		<path class="st0" d="M143.7,30.3c-15.1,0-27.4,12.3-27.4,27.4s12.3,27.4,27.4,27.4c15.1,0,27.4-12.3,27.4-27.4
			S158.9,30.3,143.7,30.3z"/>
	</g>
	<g>
		<path class="st0" d="M355.8,44.5c-2.5,2.7-3.8,6.9-3.8,12.5v25.9h-9.8V31.3h9.8v5.1c0,0,6-7.5,20-5.7v9.4
			C361.6,37.2,355.8,44.5,355.8,44.5z"/>
		<path class="st0" d="M309.2,0.6L309,37.9c-4.9-4.7-11.6-7.6-19-7.6c-15.1,0-27.4,12.3-27.4,27.4s12.3,27.4,27.4,27.4
			c7.4,0,14.1-2.9,19-7.7l0.2,5.4h9.8V0.6H309.2z M290,75c-9.6,0-17.3-7.7-17.3-17.3c0-9.6,7.7-17.3,17.3-17.3s17.3,7.7,17.3,17.3
			C307.3,67.3,299.6,75,290,75z"/>
		<path class="st0" d="M480,30.3c-7.4,0-14.2,3-19.1,7.8l-0.2-5.9h-9.8v82.2h9.8l0.2-37c4.9,4.8,11.7,7.7,19.1,7.7
			c15.1,0,27.4-12.3,27.4-27.4S495.1,30.3,480,30.3z M480,75c-9.6,0-17.3-7.7-17.3-17.3c0-9.6,7.7-17.3,17.3-17.3
			s17.3,7.7,17.3,17.3C497.3,67.3,489.5,75,480,75z"/>
		<path class="st0" d="M405.4,30.3c-15.1,0-27.4,12.3-27.4,27.4s12.3,27.4,27.4,27.4s27.4-12.3,27.4-27.4S420.5,30.3,405.4,30.3z"/>
	</g>
	<g>
		<path class="st0" d="M617.5,44.5c-2.5,2.7-3.8,6.9-3.8,12.5v25.9h-9.8V31.3h9.8v5.1c0,0,6-7.5,20-5.7v9.4
			C623.2,37.2,617.5,44.5,617.5,44.5z"/>
		<path class="st0" d="M570.9,0.6l-0.2,37.3c-4.9-4.7-11.6-7.6-19-7.6c-15.1,0-27.4,12.3-27.4,27.4s12.3,27.4,27.4,27.4
			c7.4,0,14.1-2.9,19-7.7l0.2,5.4h9.8V0.6H570.9z M551.7,75c-9.6,0-17.3-7.7-17.3-17.3c0-9.6,7.7-17.3,17.3-17.3S569,48.1,569,57.7
			C569,67.3,561.3,75,551.7,75z"/>
		<path class="st0" d="M741.6,30.3c-7.4,0-14.2,3-19.1,7.8l-0.2-5.9h-9.8v82.2h9.8l0.2-37c4.9,4.8,11.7,7.7,19.1,7.7
			c15.1,0,27.4-12.3,27.4-27.4S756.8,30.3,741.6,30.3z M741.6,75c-9.6,0-17.3-7.7-17.3-17.3c0-9.6,7.7-17.3,17.3-17.3
			s17.3,7.7,17.3,17.3C758.9,67.3,751.2,75,741.6,75z"/>
		<path class="st0" d="M667.1,30.3c-15.1,0-27.4,12.3-27.4,27.4s12.3,27.4,27.4,27.4s27.4-12.3,27.4-27.4S682.2,30.3,667.1,30.3z"/>
	</g>
</g>
</svg>
