<?xml version="1.0" encoding="utf-8"?>
<!-- Generator: Adobe Illustrator 25.0.1, SVG Export Plug-In . SVG Version: 6.00 Build 0)  -->
<svg version="1.1" id="레이어_1" xmlns="http://www.w3.org/2000/svg" xmlns:xlink="http://www.w3.org/1999/xlink" x="0px"
	 y="0px" viewBox="0 0 770 113.7" style="enable-background:new 0 0 770 113.7;" xml:space="preserve">
<style type="text/css">
	.st0{fill:#FFFFFF;}
</style>
<g>
	<g>
		<path class="st0" d="M94.7,43.8c-2.5,2.7-3.8,6.9-3.8,12.5v25.9h-9.8V30.7h9.8v5.1c0,0,6-7.5,20-5.7v9.4
			C100.4,36.6,94.7,43.8,94.7,43.8z"/>
		<path class="st0" d="M48.1,0l-0.2,37.3c-4.9-4.7-11.6-7.6-19-7.6c-15.1,0-27.4,12.3-27.4,27.4s12.3,27.4,27.4,27.4
			c7.4,0,14.1-2.9,19-7.7l0.2,5.4h9.8V0H48.1z M28.9,74.4c-9.6,0-17.3-7.7-17.3-17.3c0-9.6,7.7-17.3,17.3-17.3s17.3,7.7,17.3,17.3
			C46.2,66.6,38.4,74.4,28.9,74.4z"/>
		<path class="st0" d="M218.8,29.7c-7.4,0-14.2,3-19.1,7.8l-0.2-5.9h-9.8v82.2h9.8l0.2-37c4.9,4.8,11.7,7.7,19.1,7.7
			c15.1,0,27.4-12.3,27.4-27.4S233.9,29.7,218.8,29.7z M218.8,74.4c-9.6,0-17.3-7.7-17.3-17.3c0-9.6,7.7-17.3,17.3-17.3
			s17.3,7.7,17.3,17.3C236.1,66.6,228.3,74.4,218.8,74.4z"/>
		<path class="st0" d="M144.2,29.7c-15.1,0-27.4,12.3-27.4,27.4s12.3,27.4,27.4,27.4c15.1,0,27.4-12.3,27.4-27.4
			S159.4,29.7,144.2,29.7z"/>
	</g>
	<g>
		<path class="st0" d="M356.3,43.8c-2.5,2.7-3.8,6.9-3.8,12.5v25.9h-9.8V30.7h9.8v5.1c0,0,6-7.5,20-5.7v9.4
			C362.1,36.6,356.3,43.8,356.3,43.8z"/>
		<path class="st0" d="M309.7,0l-0.2,37.3c-4.9-4.7-11.6-7.6-19-7.6c-15.1,0-27.4,12.3-27.4,27.4s12.3,27.4,27.4,27.4
			c7.4,0,14.1-2.9,19-7.7l0.2,5.4h9.8V0H309.7z M290.5,74.4c-9.6,0-17.3-7.7-17.3-17.3c0-9.6,7.7-17.3,17.3-17.3s17.3,7.7,17.3,17.3
			C307.8,66.6,300.1,74.4,290.5,74.4z"/>
		<path class="st0" d="M480.5,29.7c-7.4,0-14.2,3-19.1,7.8l-0.2-5.9h-9.8v82.2h9.8l0.2-37c4.9,4.8,11.7,7.7,19.1,7.7
			c15.1,0,27.4-12.3,27.4-27.4S495.6,29.7,480.5,29.7z M480.5,74.4c-9.6,0-17.3-7.7-17.3-17.3c0-9.6,7.7-17.3,17.3-17.3
			s17.3,7.7,17.3,17.3C497.8,66.6,490,74.4,480.5,74.4z"/>
		<path class="st0" d="M405.9,29.7c-15.1,0-27.4,12.3-27.4,27.4s12.3,27.4,27.4,27.4s27.4-12.3,27.4-27.4S421,29.7,405.9,29.7z"/>
	</g>
	<g>
		<path class="st0" d="M618,43.8c-2.5,2.7-3.8,6.9-3.8,12.5v25.9h-9.8V30.7h9.8v5.1c0,0,6-7.5,20-5.7v9.4
			C623.7,36.6,618,43.8,618,43.8z"/>
		<path class="st0" d="M571.4,0l-0.2,37.3c-4.9-4.7-11.6-7.6-19-7.6c-15.1,0-27.4,12.3-27.4,27.4s12.3,27.4,27.4,27.4
			c7.4,0,14.1-2.9,19-7.7l0.2,5.4h9.8V0H571.4z M552.2,74.4c-9.6,0-17.3-7.7-17.3-17.3c0-9.6,7.7-17.3,17.3-17.3s17.3,7.7,17.3,17.3
			C569.5,66.6,561.8,74.4,552.2,74.4z"/>
		<path class="st0" d="M742.1,29.7c-7.4,0-14.2,3-19.1,7.8l-0.2-5.9H713v82.2h9.8l0.2-37c4.9,4.8,11.7,7.7,19.1,7.7
			c15.1,0,27.4-12.3,27.4-27.4S757.3,29.7,742.1,29.7z M742.1,74.4c-9.6,0-17.3-7.7-17.3-17.3c0-9.6,7.7-17.3,17.3-17.3
			s17.3,7.7,17.3,17.3C759.4,66.6,751.7,74.4,742.1,74.4z"/>
		<path class="st0" d="M667.6,29.7c-15.1,0-27.4,12.3-27.4,27.4s12.3,27.4,27.4,27.4S695,72.2,695,57.1S682.7,29.7,667.6,29.7z"/>
	</g>
</g>
</svg>
