<svg xmlns="http://www.w3.org/2000/svg" xmlns:xlink="http://www.w3.org/1999/xlink" width="324" height="202" viewBox="0 0 324 202" ><defs><clipPath id="a"><rect width="324" height="202" transform="translate(-0.436 -0.023)"/></clipPath></defs><g transform="translate(580 -6363)"><g transform="translate(-580.09 6363.396)"><g transform="translate(0.526 -0.373)" clip-path="url(#a)"><path d="M137.092,98.1c0,1.521-.312,3.023-2.107,3.023-1.43,0-2.079-2.314-2.621-3.367-4.284-8.564-9.81-12.738-18.493-12.738-17.281,0-25.5,15.145-25.5,29.212,0,19.416,11.823,29.036,24.98,29.036,7.884,0,13.346-3.11,18.9-8.637.9-.893,1.875-2.409,3.4-2.409a2.03,2.03,0,0,1,1.974,2.14c0,2.943-6.719,8.019-8.958,9.359-4.834,3.02-9.31,4.628-16.741,4.628-17.9,0-32.671-13.177-32.671-31.441,0-17.461,10.388-36.439,35-36.439a32.178,32.178,0,0,1,16.974,4.186c5,2.583,5.855,4.449,5.855,7.038Z" transform="translate(12.777 13.514)"/><path d="M147.474,124.422c-.983,3.048-4.125,10.8-4.125,13.92,0,5.52,4.743,3.99,4.743,6.666,0,1.959-2.589,1.767-5.376,1.767h-7.252c-2.138,0-3.757.152-3.757-1.9,0-1.059.634-1.524,1.442-2.063a5.415,5.415,0,0,0,2.769-3.347c6.535-20.213,15.312-40.421,22.471-53.341,1.163-2.132,3.125-6.039,4.471-6.039,1.708,0,4.387,4.991,5.012,6.053,7.609,12.921,14.684,30.114,22.745,53.818.622,1.772,1.432,2.313,3.126,3.2.9.445,1.529.744,1.529,1.813,0,2.056-2.053,1.808-3.582,1.808h-11.1c-1.42,0-3.224-.021-3.224-1.9,0-2.758,4.569-1.625,4.569-4.474,0-1.788-3.67-11.912-5.374-15.977Zm27.66-5.079c-4.035-10.16-8.515-21.112-13.339-28.7a200.606,200.606,0,0,0-12.63,28.7Z" transform="translate(21.558 13.452)"/><path d="M204.456,120.347a176.389,176.389,0,0,1-21.9-32.423c-1.163-2.233-5.624-1.7-5.624-4.272,0-1.517,1.365-1.245,2.711-1.245H192.9c1.418,0,2.944-.364,2.944,1.331,0,2.314-4.293,1.647-4.293,3.968,0,2.664,5.908,14.131,18.263,27.764,9.573-10.063,18.079-24.369,18.079-26.782,0-4.006-4.917-2.249-4.917-5.185,0-1.609,1.874-1.1,2.859-1.1h10.034c1.244,0,3.571-.364,3.571,1.158,0,2.132-3.2,2.351-4.447,4.847-5.194,10.417-14.2,22.677-22.367,32.12v16.743c0,3.918-.029,4.451,1.5,4.9,2.521.617,3.571.734,3.571,2.337,0,1.964-1.8,1.9-3.235,1.9H202.2c-1.523,0-3.215.064-3.215-1.9,0-1.431,1.121-1.705,2.823-2.239,2.236-.709,2.649-1.435,2.649-5Z" transform="translate(29.131 13.815)"/><path d="M238.838,88.8c0-2.4-.821-2.579-2.623-3.027-1.33-.347-2.413-.167-2.413-1.862,0-1.96,1.868-1.509,3.4-1.509H249.37c1.515,0,3.213-.359,3.213,1.509,0,1.517-1.263,1.471-2.431,1.915-3.311,1.249-3.145,1.472-3.145,5.031v45.522c0,4.98.544,5.792,9.058,5.792,17.723,0,19.573-.979,23.958-4.2.712-.534,2.315-1.956,3.387-1.956s1.562.8,1.562,1.794a49.139,49.139,0,0,1-1.51,6.969c-.9,1.957-2.755,1.626-4.548,1.626H237.545c-1.434,0-3.123.067-3.123-1.9,0-1.43.557-1.617,1.713-2.068,3.048-1.157,2.7-1.605,2.7-5.167Z" transform="translate(38.652 13.82)"/><path d="M265.226,82.4h6.124v1.015h-3.061v5.08h-1.02v-5.08h-2.043Z" transform="translate(43.913 13.826)"/><path d="M277.473,88.491V84.6a10.346,10.346,0,0,1,.261-1.191h-.015l-2.138,5.08h-1.035l-2.127-5.08h-.027s-.023.971-.023,1.191v3.889h-1.02V82.4H272.9l2.163,5.08h.022l2.16-5.08h1.25v6.1Z" transform="translate(44.938 13.826)"/><path d="M201.915,25.046,169.494,53.714,149.817,43.037,118,0,89.544,53.739,58.162,109.716l-16.055-4.807L0,200.952l42.108-74.1,5.788-7.825,13.723,1.092,40.614-66.236,17.34-32L135.91,47.731l35.275,19.617L201.666,40.6l94.82,31.463Z" transform="translate(-0.494 0.501)"/></g></g></g></svg>